<?xml version="1.0" encoding="utf-8"?>
<!-- Generator: Adobe Illustrator 24.1.0, SVG Export Plug-In . SVG Version: 6.00 Build 0)  -->
<svg version="1.1" id="Шар_1" xmlns="http://www.w3.org/2000/svg" xmlns:xlink="http://www.w3.org/1999/xlink" x="0px" y="0px"
	 viewBox="0 0 388.89 427.71" style="enable-background:new 0 0 388.89 427.71;" xml:space="preserve">
<style type="text/css">
	.st0{fill:#FFFFFF;}
</style>
<path class="st0" d="M388.66,147.27c-0.02-18.13-8.06-35.06-21.45-45.14L221.64,9.2c-16.26-12.25-37.47-12.26-53.73-0.03
	L21.47,102.49C8.04,112.59-0.02,129.58,0,147.77l0.23,225.6c0.03,30.04,21.69,54.37,48.38,54.34l292.01-0.3
	c26.69-0.03,48.3-24.4,48.27-54.44L388.66,147.27z M37.45,132.77c29.82-28.28,105.59-68.15,134.07-89.86
	c14.17-10.28,32.63-10.25,46.77,0.07c0,0,104.62,65.85,135.9,91.52c3.71,3.05,1.55,9.06-3.25,9.04l-308.44-0.13
	C37,143.4,33.46,136.55,37.45,132.77z M361.42,371.96c0,18.59-15.07,33.66-33.66,33.66h-67.5l0.49-90.57l-56.28,47.1
	c-4.84,4.05-11.86,4.11-16.77,0.14l-60.67-49.05l-0.51,92.38h-63.5c-18.59,0-33.66-15.07-33.66-33.66V226.44
	c0-4.57,3.71-8.28,8.28-8.28h88.88c2.25,0,4.42,0.86,6.06,2.4l54.85,51.6c4.86,4.57,12.46,4.48,17.21-0.2l52.01-51.26
	c1.65-1.63,3.88-2.54,6.2-2.54h90.26c4.57,0,8.28,3.71,8.28,8.28V371.96z"/>
</svg>
